<?xml version="1.0" encoding="UTF-8" standalone="no"?>
<!-- Created with Inkscape (http://www.inkscape.org/) -->
<svg xmlns:dc="http://purl.org/dc/elements/1.1/" xmlns:cc="http://creativecommons.org/ns#" xmlns:rdf="http://www.w3.org/1999/02/22-rdf-syntax-ns#" xmlns:svg="http://www.w3.org/2000/svg" xmlns="http://www.w3.org/2000/svg" xmlns:sodipodi="http://sodipodi.sourceforge.net/DTD/sodipodi-0.dtd" xmlns:inkscape="http://www.inkscape.org/namespaces/inkscape" width="210mm" height="297mm" viewBox="0 0 210 297" version="1.1" id="svg8665" inkscape:version="0.92.3 (2405546, 2018-03-11)" sodipodi:docname="Attacker.svg">
  <defs id="defs8659">
    <marker inkscape:isstock="true" style="overflow:visible" id="marker9888" refX="0" refY="0" orient="auto" inkscape:stockid="Arrow1Mend">
      <path transform="matrix(-0.4,0,0,-0.4,-4,0)" style="fill:#900000;fill-opacity:1;fill-rule:evenodd;stroke:#900000;stroke-width:1.00000003pt;stroke-opacity:1" d="M 0,0 5,-5 -12.5,0 5,5 Z" id="path9886" inkscape:connector-curvature="0"/>
    </marker>
    <marker inkscape:stockid="Arrow1Lend" orient="auto" refY="0.0" refX="0.0" id="Arrow1Lend" style="overflow:visible;" inkscape:isstock="true">
      <path id="path4625" d="M 0.0,0.0 L 5.0,-5.0 L -12.5,0.0 L 5.0,5.0 L 0.0,0.0 z " style="fill-rule:evenodd;stroke:#000000;stroke-width:1pt;stroke-opacity:1;fill:#000000;fill-opacity:1" transform="scale(0.8) rotate(180) translate(12.5,0)"/>
    </marker>
    <marker inkscape:stockid="Arrow1Mstart" orient="auto" refY="0" refX="0" id="Arrow1Mstart" style="overflow:visible" inkscape:isstock="true">
      <path inkscape:connector-curvature="0" id="path4628" d="M 0,0 5,-5 -12.5,0 5,5 Z" style="fill:#000000;fill-opacity:1;fill-rule:evenodd;stroke:#000000;stroke-width:1.00000003pt;stroke-opacity:1" transform="matrix(0.4,0,0,0.4,4,0)"/>
    </marker>
    <marker inkscape:stockid="Arrow1Mend" orient="auto" refY="0" refX="0" id="Arrow1Mend" style="overflow:visible" inkscape:isstock="true" inkscape:collect="always">
      <path inkscape:connector-curvature="0" id="path4631" d="M 0,0 5,-5 -12.5,0 5,5 Z" style="fill:#000000;fill-opacity:1;fill-rule:evenodd;stroke:#000000;stroke-width:1.00000003pt;stroke-opacity:1" transform="matrix(-0.4,0,0,-0.4,-4,0)"/>
    </marker>
  </defs>
  <sodipodi:namedview id="base" pagecolor="#ffffff" bordercolor="#666666" borderopacity="1.0" inkscape:pageopacity="0.0" inkscape:pageshadow="2" inkscape:zoom="0.98994949" inkscape:cx="378.68301" inkscape:cy="642.57194" inkscape:document-units="mm" inkscape:current-layer="layer1" showgrid="false" inkscape:window-width="1920" inkscape:window-height="1017" inkscape:window-x="-8" inkscape:window-y="-8" inkscape:window-maximized="1"/>
  <metadata id="metadata8662">
    <rdf:RDF>
      <cc:Work rdf:about="">
        <dc:format>image/svg+xml</dc:format>
        <dc:type rdf:resource="http://purl.org/dc/dcmitype/StillImage"/>
        <dc:title/>
      </cc:Work>
    </rdf:RDF>
  </metadata>
  <g inkscape:label="Layer 1" inkscape:groupmode="layer" id="layer1">
    <rect style="opacity:1;fill:#ffffff;fill-opacity:1;stroke:#000000;stroke-width:1.56500006;stroke-miterlimit:4;stroke-dasharray:none;stroke-dashoffset:0;stroke-opacity:1" id="rect4518" width="168.95535" height="136.07143" x="27.78125" y="48.291668" ry="8.5526247"/>
    <text xml:space="preserve" style="font-style:normal;font-variant:normal;font-weight:normal;font-stretch:normal;font-size:11.90894699px;line-height:1.25;font-family:Arial;-inkscape-font-specification:Arial;letter-spacing:0px;word-spacing:0px;fill:#000000;fill-opacity:1;stroke:none;stroke-width:0.29772365" x="55.741665" y="63.25597" id="text4524"><tspan sodipodi:role="line" x="55.741665" y="63.25597" style="font-style:normal;font-variant:normal;font-weight:normal;font-stretch:normal;font-family:Arial;-inkscape-font-specification:Arial;stroke-width:0.29772365" id="tspan4528">Attacker</tspan></text>
    <text xml:space="preserve" style="font-style:normal;font-weight:normal;font-size:10.58333302px;line-height:1.25;font-family:sans-serif;letter-spacing:0px;word-spacing:0px;fill:#676767;fill-opacity:1;stroke:none;stroke-width:0.26458332" x="54.912369" y="76.017212" id="text4534"><tspan sodipodi:role="line" id="tspan4532" x="54.912369" y="76.017212" style="word-spacing:1.06891668px;fill:#676767;fill-opacity:1;stroke-width:0.26458332">ads.com.attacker.com</tspan></text>
    <rect style="opacity:1;fill:#ffffff;fill-opacity:1;stroke:#000000;stroke-width:2.17826414;stroke-miterlimit:4;stroke-dasharray:none;stroke-dashoffset:0;stroke-opacity:1" id="rect4526-8" width="82.996307" height="78.317329" x="105.10408" y="88.197235" ry="10.232029"/>
    <path style="fill:none;stroke:#000000;stroke-width:1.48117495;stroke-linecap:butt;stroke-linejoin:miter;stroke-miterlimit:4;stroke-dasharray:none;stroke-opacity:1;marker-start:url(#Arrow1Mstart);marker-end:url(#Arrow1Mend)" d="m 85.347663,148.19702 c 20.737457,-8.7049 28.115977,-3.66919 36.823057,0" id="path4620" inkscape:connector-curvature="0" sodipodi:nodetypes="cc"/>
    <text xml:space="preserve" style="font-style:normal;font-variant:normal;font-weight:normal;font-stretch:normal;font-size:10.30041695px;line-height:1.25;font-family:Arial;-inkscape-font-specification:Arial;letter-spacing:0px;word-spacing:0px;fill:#000000;fill-opacity:1;stroke:none;stroke-width:0.25751039" x="108.28514" y="114.73061" id="text7516"><tspan sodipodi:role="line" id="tspan7514" x="108.28514" y="114.73061" style="font-style:normal;font-variant:normal;font-weight:normal;font-stretch:normal;font-family:Arial;-inkscape-font-specification:Arial;stroke-width:0.25751039">Happy Webshop</tspan></text>
    <text xml:space="preserve" style="font-style:normal;font-weight:normal;font-size:8.92631626px;line-height:1.25;font-family:sans-serif;letter-spacing:0px;word-spacing:0px;fill:#676767;fill-opacity:1;stroke:none;stroke-width:0.2231579" x="108.4686" y="124.33356" id="text4534-0"><tspan sodipodi:role="line" id="tspan4532-8" x="108.4686" y="124.33356" style="word-spacing:0.90155792px;fill:#676767;fill-opacity:1;stroke-width:0.2231579">webshop.com</tspan></text>
    <text xml:space="preserve" style="font-style:normal;font-variant:normal;font-weight:normal;font-stretch:normal;font-size:10.58333302px;line-height:1.25;font-family:Arial;-inkscape-font-specification:Arial;letter-spacing:0px;word-spacing:0px;fill:#000000;fill-opacity:1;stroke:none;stroke-width:0.26458332" x="108.91721" y="99.55986" id="text7946"><tspan sodipodi:role="line" id="tspan7944" x="108.91721" y="99.55986" style="font-style:normal;font-variant:normal;font-weight:normal;font-stretch:normal;font-family:Arial;-inkscape-font-specification:Arial;stroke-width:0.26458332">&lt;/&gt;</tspan></text>
    <path style="fill:none;stroke:#000000;stroke-width:1.16499996;stroke-linecap:butt;stroke-linejoin:miter;stroke-miterlimit:4;stroke-dasharray:none;stroke-opacity:1" d="m 105.57635,101.56438 10.95805,-0.0668 c 10.96065,0.14989 10.9333,0.0971 11.02486,-6.28083 l 0.0668,-6.214015" id="path7948" inkscape:connector-curvature="0" sodipodi:nodetypes="cccc"/>
    <circle style="opacity:1;fill:none;fill-opacity:1;stroke:#000000;stroke-width:1.30237484;stroke-linecap:round;stroke-linejoin:round;stroke-miterlimit:4;stroke-dasharray:none;stroke-dashoffset:0;stroke-opacity:1" id="path7999" cx="42.011189" cy="62.824753" r="11.076"/>
    <path style="opacity:1;fill:#000000;fill-opacity:1;stroke:none;stroke-width:0.22587188;stroke-linecap:round;stroke-linejoin:round;stroke-miterlimit:4;stroke-dasharray:none;stroke-dashoffset:0;stroke-opacity:1" d="m 44.075143,54.516315 c -0.593851,0.0084 -0.593564,0.0071 -1.09299,0.274648 -0.970322,0.824853 -0.972325,0.821978 -1.847017,0.06653 -0.560439,-0.243875 -0.56183,-0.239412 -1.044317,-0.250719 -0.678595,0.02665 -2.958115,1.729794 -2.958099,3.86363 -10e-7,0.223367 0.01533,0.44194 0.04318,0.654932 l -4.74e-4,1.17e-4 0.11614,0.725896 c 0.02202,0.116423 -0.155071,0.144888 -0.170648,0.02743 l -0.113915,-0.711656 c -2.965656,0.686708 -4.786253,1.929408 -4.794377,3.272549 -3.8e-5,2.108814 4.392041,3.818351 9.809944,3.818344 5.417903,7e-6 9.809981,-1.70953 9.809944,-3.818344 -0.005,-1.334634 -1.799999,-2.57139 -4.734265,-3.261928 l -0.0712,0.444712 c -0.0183,0.113822 -0.189067,0.08639 -0.170765,-0.02743 l 0.170765,-1.067079 c 7.74e-4,-0.0051 0.002,-0.01008 0.0036,-0.01495 0.0011,-0.04431 0.0026,-0.0885 0.0026,-0.133179 -3.4e-5,-2.13379 -2.199502,-3.820852 -2.958099,-3.863516 z m 4.764731,11.417447 -5.9902,1.764728 a 3.1078443,3.3596955 0 0 0 3.018794,2.577817 3.1078443,3.3596955 0 0 0 3.107853,-3.359741 3.1078443,3.3596955 0 0 0 -0.136447,-0.982804 z m -13.747931,0.01401 a 3.1078443,3.3596955 0 0 0 -0.136564,0.982804 3.1078443,3.3596955 0 0 0 3.107854,3.359742 3.1078443,3.3596955 0 0 0 3.01891,-2.577817 z" id="path9276" inkscape:connector-curvature="0"/>
    <path style="fill:none;stroke:#900000;stroke-width:1.26499999;stroke-linecap:butt;stroke-linejoin:miter;stroke-miterlimit:4;stroke-dasharray:5.06, 1.265;stroke-dashoffset:0;stroke-opacity:1;marker-end:url(#marker9888)" d="m 85.233629,98.184524 9.449406,11.339276 -10.961308,6.80358 8.882441,8.12649" id="path9598" inkscape:connector-curvature="0" sodipodi:nodetypes="cccc"/>
    <text xml:space="preserve" style="font-style:normal;font-weight:normal;font-size:37.54445267px;line-height:1.25;font-family:sans-serif;letter-spacing:0px;word-spacing:0px;fill:#900000;fill-opacity:1;stroke:none;stroke-width:0.93861133;" x="68.49028" y="124.64285" id="text9872"><tspan sodipodi:role="line" id="tspan9870" x="68.49028" y="124.64285" style="stroke-width:0.93861133;fill:#900000;fill-opacity:1;">!</tspan></text>
    <g id="g8006" transform="matrix(0.62154632,0,0,0.62154632,156.61504,65.840079)">
      <path sodipodi:nodetypes="cccc" inkscape:connector-curvature="0" id="path7963" d="m 26.815873,47.203892 h 3.542532 l 0.524448,1.21279 1.835576,4.588937" style="fill:none;stroke:#000000;stroke-width:1;stroke-linecap:butt;stroke-linejoin:miter;stroke-miterlimit:4;stroke-dasharray:none;stroke-opacity:1"/>
      <path sodipodi:nodetypes="cccccc" inkscape:connector-curvature="0" id="path7965" d="m 30.859817,48.287899 10.413697,-0.0023 v 3.212254 l -8.555085,1.507794 -0.455056,2.065603 8.043185,0.07822" style="fill:none;stroke:#000000;stroke-width:1;stroke-linecap:round;stroke-linejoin:miter;stroke-miterlimit:4;stroke-dasharray:none;stroke-opacity:1"/>
      <circle r="1.0816778" cy="56.250656" cx="32.521759" id="path7979" style="opacity:1;fill:none;fill-opacity:1;stroke:#000000;stroke-width:1;stroke-linecap:butt;stroke-linejoin:round;stroke-miterlimit:4;stroke-dasharray:none;stroke-dashoffset:0;stroke-opacity:1"/>
      <circle r="1.0816778" cy="56.283436" cx="40.355724" id="path7979-7" style="opacity:1;fill:none;fill-opacity:1;stroke:#000000;stroke-width:1;stroke-linecap:butt;stroke-linejoin:round;stroke-miterlimit:4;stroke-dasharray:none;stroke-dashoffset:0;stroke-opacity:1"/>
      <circle r="10.066286" cy="51.126488" cx="35.057293" id="path7999-2" style="opacity:1;fill:none;fill-opacity:1;stroke:#000000;stroke-width:1.18364727;stroke-linecap:round;stroke-linejoin:round;stroke-miterlimit:4;stroke-dasharray:none;stroke-dashoffset:0;stroke-opacity:1"/>
    </g>
  </g>
</svg>