<?xml version="1.0" encoding="UTF-8" standalone="no"?>
<svg
   xmlns:dc="http://purl.org/dc/elements/1.1/"
   xmlns:cc="http://creativecommons.org/ns#"
   xmlns:rdf="http://www.w3.org/1999/02/22-rdf-syntax-ns#"
   xmlns:svg="http://www.w3.org/2000/svg"
   xmlns="http://www.w3.org/2000/svg"
   xmlns:xlink="http://www.w3.org/1999/xlink"
   xmlns:sodipodi="http://sodipodi.sourceforge.net/DTD/sodipodi-0.dtd"
   xmlns:inkscape="http://www.inkscape.org/namespaces/inkscape"
   viewBox="0 0 928.39313 475.51843"
   version="1.1"
   id="svg531"
   sodipodi:docname="car-33633-blue.svg"
   inkscape:version="0.92.4 (5da689c313, 2019-01-14)">
  <metadata
     id="metadata535">
    <rdf:RDF>
      <cc:Work
         rdf:about="">
        <dc:format>image/svg+xml</dc:format>
        <dc:type
           rdf:resource="http://purl.org/dc/dcmitype/StillImage" />
        <dc:title></dc:title>
      </cc:Work>
    </rdf:RDF>
  </metadata>
  <sodipodi:namedview
     pagecolor="#ffffff"
     bordercolor="#666666"
     borderopacity="1"
     objecttolerance="10"
     gridtolerance="10"
     guidetolerance="10"
     inkscape:pageopacity="0"
     inkscape:pageshadow="2"
     inkscape:window-width="1280"
     inkscape:window-height="961"
     id="namedview533"
     showgrid="false"
     inkscape:zoom="0.37699547"
     inkscape:cx="464.19656"
     inkscape:cy="237.75922"
     inkscape:window-x="-8"
     inkscape:window-y="-8"
     inkscape:window-maximized="1"
     inkscape:current-layer="svg531" />
  <defs
     id="defs261">
    <filter
       id="au">
      <feGaussianBlur
         stdDeviation="3.38881"
         id="feGaussianBlur2" />
    </filter>
    <filter
       id="at"
       x="-.05583"
       y="-.13368"
       width="1.1117"
       height="1.2674">
      <feGaussianBlur
         stdDeviation="7.88644"
         id="feGaussianBlur5" />
    </filter>
    <linearGradient
       id="h">
      <stop
         stop-color="#fff"
         offset="0"
         id="stop8" />
      <stop
         stop-color="#fff"
         stop-opacity="0"
         offset="1"
         id="stop10" />
    </linearGradient>
    <linearGradient
       id="i">
      <stop
         stop-color="#fff"
         stop-opacity=".65487"
         offset="0"
         id="stop13" />
      <stop
         stop-color="#fff"
         stop-opacity="0"
         offset="1"
         id="stop15" />
    </linearGradient>
    <linearGradient
       id="a">
      <stop
         offset="0"
         id="stop18" />
      <stop
         stop-opacity="0"
         offset="1"
         id="stop20" />
    </linearGradient>
    <linearGradient
       id="d">
      <stop
         stop-color="#a00"
         offset="0"
         id="stop23" />
      <stop
         stop-color="#a00"
         offset=".56847"
         id="stop25" />
      <stop
         stop-color="#ffc2c2"
         offset=".58397"
         id="stop27" />
      <stop
         stop-color="#a00"
         offset=".59133"
         id="stop29" />
      <stop
         stop-color="#a00"
         offset="1"
         id="stop31" />
    </linearGradient>
    <linearGradient
       id="g">
      <stop
         stop-color="#bab7c7"
         offset="0"
         id="stop34" />
      <stop
         stop-color="#bab7c7"
         offset=".72566"
         id="stop36" />
      <stop
         stop-color="#514d63"
         offset=".86283"
         id="stop38" />
      <stop
         stop-color="#484558"
         offset="1"
         id="stop40" />
    </linearGradient>
    <linearGradient
       id="f"
       x2="0"
       y1="322.53"
       y2="334.58"
       gradientUnits="userSpaceOnUse">
      <stop
         stop-color="#aaa8b5"
         offset="0"
         id="stop43" />
      <stop
         stop-color="#d5d4da"
         offset=".34071"
         id="stop45" />
      <stop
         stop-color="#a5a3b1"
         offset=".51106"
         id="stop47" />
      <stop
         stop-color="#a4a2b0"
         offset=".68142"
         id="stop49" />
      <stop
         stop-color="#3e3c47"
         offset=".97745"
         id="stop51" />
      <stop
         stop-color="#53515f"
         offset="1"
         id="stop53" />
    </linearGradient>
    <linearGradient
       id="ac"
       x2="0"
       y1="204.45"
       y2="304.16"
       gradientUnits="userSpaceOnUse">
      <stop
         stop-color="#6e789c"
         offset="0"
         id="stop56" />
      <stop
         stop-color="#5b6483"
         offset=".34786"
         id="stop58" />
      <stop
         stop-color="#464f67"
         offset=".41548"
         id="stop60" />
      <stop
         stop-color="#677196"
         offset="1"
         id="stop62" />
    </linearGradient>
    <linearGradient
       id="ad"
       x2="0"
       y1="240.34"
       y2="244.74"
       gradientUnits="userSpaceOnUse">
      <stop
         stop-color="#1a1a1a"
         offset="0"
         id="stop65" />
      <stop
         stop-color="#1a1a1a"
         stop-opacity="0"
         offset="1"
         id="stop67" />
    </linearGradient>
    <linearGradient
       id="aa"
       x1="343.84"
       x2="411.04"
       y1="202.25"
       y2="271.42"
       gradientUnits="userSpaceOnUse">
      <stop
         stop-opacity=".80503"
         offset="0"
         id="stop70" />
      <stop
         stop-opacity="0"
         offset="1"
         id="stop72" />
    </linearGradient>
    <linearGradient
       id="ab"
       x1="313.4"
       x2="347.92"
       y1="325.42"
       y2="328.9"
       gradientUnits="userSpaceOnUse">
      <stop
         stop-color="#7d0000"
         offset="0"
         id="stop75" />
      <stop
         stop-color="#7a0000"
         offset=".00994"
         id="stop77" />
      <stop
         stop-color="#ff8585"
         offset=".09028"
         id="stop79" />
      <stop
         stop-color="#620000"
         offset=".14663"
         id="stop81" />
      <stop
         stop-color="#4a0000"
         offset="1"
         id="stop83" />
    </linearGradient>
    <linearGradient
       id="z"
       x2="0"
       y1="467.86"
       y2="472.05"
       gradientUnits="userSpaceOnUse">
      <stop
         stop-color="#f4d7d7"
         offset="0"
         id="stop86" />
      <stop
         stop-color="#5a1919"
         offset="1"
         id="stop88" />
    </linearGradient>
    <linearGradient
       id="y"
       x1="343.13"
       x2="341.19"
       y1="468.73"
       y2="486.41"
       gradientUnits="userSpaceOnUse">
      <stop
         stop-color="#a86868"
         offset="0"
         id="stop91" />
      <stop
         stop-color="#8d2020"
         offset=".39054"
         id="stop93" />
      <stop
         stop-color="#cbcce1"
         offset=".40487"
         id="stop95" />
      <stop
         stop-color="#cbcce1"
         offset=".5"
         id="stop97" />
      <stop
         stop-color="#cbcce1"
         offset=".69027"
         id="stop99" />
      <stop
         stop-color="#131422"
         offset="1"
         id="stop101" />
    </linearGradient>
    <linearGradient
       id="x"
       x1="329.23"
       x2="332.51"
       y1="185.22"
       y2="325.2"
       gradientUnits="userSpaceOnUse">
      <stop
         stop-color="#500"
         offset="0"
         id="stop104" />
      <stop
         stop-color="#500"
         stop-opacity=".86164"
         offset=".00598"
         id="stop106" />
      <stop
         stop-color="#500"
         stop-opacity="0"
         offset=".06762"
         id="stop108" />
      <stop
         stop-color="#500"
         stop-opacity="0"
         offset="1"
         id="stop110" />
    </linearGradient>
    <linearGradient
       id="w"
       x1="175.37"
       x2="179.09"
       y1="469.28"
       y2="394.85"
       gradientUnits="userSpaceOnUse">
      <stop
         stop-color="#19243e"
         offset="0"
         id="stop113" />
      <stop
         stop-color="#c2cde6"
         offset=".16035"
         id="stop115" />
      <stop
         stop-color="#c2cde6"
         offset="1"
         id="stop117" />
    </linearGradient>
    <linearGradient
       id="v"
       x1="195.14"
       x2="165.56"
       y1="430.46"
       y2="432.31"
       gradientUnits="userSpaceOnUse">
      <stop
         stop-color="#19243e"
         offset="0"
         id="stop120" />
      <stop
         stop-color="#33497d"
         stop-opacity="0"
         offset=".16035"
         id="stop122" />
      <stop
         stop-color="#c2cde6"
         stop-opacity="0"
         offset=".16035"
         id="stop124" />
      <stop
         stop-color="#c2cde6"
         stop-opacity="0"
         offset="1"
         id="stop126" />
    </linearGradient>
    <linearGradient
       id="ar"
       x1="281.41"
       x2="269.12"
       y1="81.984"
       y2="477.98"
       gradientUnits="userSpaceOnUse">
      <stop
         stop-color="#fff"
         stop-opacity=".38496"
         offset="0"
         id="stop129" />
      <stop
         stop-color="#fff"
         stop-opacity="0"
         offset="1"
         id="stop131" />
    </linearGradient>
    <linearGradient
       id="aq"
       x1="618.18"
       x2="614.53"
       y1="331.55"
       y2="352.39"
       gradientUnits="userSpaceOnUse">
      <stop
         stop-color="#240000"
         offset="0"
         id="stop134" />
      <stop
         stop-color="#670000"
         stop-opacity=".95133"
         offset=".5"
         id="stop136" />
      <stop
         stop-color="#a00"
         stop-opacity="0"
         offset="1"
         id="stop138" />
    </linearGradient>
    <linearGradient
       id="ap"
       x1="517.35"
       x2="574.7"
       y1="334.48"
       y2="361.81"
       gradientUnits="userSpaceOnUse">
      <stop
         stop-color="#a00"
         offset="0"
         id="stop141" />
      <stop
         stop-color="#a00"
         offset=".07122"
         id="stop143" />
      <stop
         stop-color="#db0000"
         stop-opacity=".37168"
         offset=".58163"
         id="stop145" />
      <stop
         stop-color="#a00"
         offset="1"
         id="stop147" />
    </linearGradient>
    <linearGradient
       id="ao"
       x1="608.1"
       x2="599.16"
       y1="338.04"
       y2="380.25"
       gradientUnits="userSpaceOnUse">
      <stop
         offset="0"
         id="stop150" />
      <stop
         stop-opacity="0"
         offset=".11565"
         id="stop152" />
      <stop
         stop-opacity="0"
         offset="1"
         id="stop154" />
    </linearGradient>
    <linearGradient
       id="an"
       x1="595.45"
       x2="872.2"
       y1="315.82"
       y2="540.77"
       gradientUnits="userSpaceOnUse">
      <stop
         stop-color="#a00"
         offset="0"
         id="stop157" />
      <stop
         stop-color="#a00"
         offset=".5"
         id="stop159" />
      <stop
         stop-color="#610000"
         offset="1"
         id="stop161" />
    </linearGradient>
    <linearGradient
       id="am"
       x1="720.3"
       x2="721.45"
       y1="278.82"
       y2="348.08"
       gradientUnits="userSpaceOnUse">
      <stop
         stop-color="#ffd5d5"
         stop-opacity=".79204"
         offset="0"
         id="stop164" />
      <stop
         stop-color="#ffd5d5"
         stop-opacity="0"
         offset="1"
         id="stop166" />
    </linearGradient>
    <linearGradient
       id="al"
       x1="850.99"
       x2="851.38"
       y1="522.9"
       y2="529.42"
       gradientUnits="userSpaceOnUse">
      <stop
         stop-color="#727da2"
         offset="0"
         id="stop169" />
      <stop
         stop-color="#212532"
         offset="1"
         id="stop171" />
    </linearGradient>
    <linearGradient
       id="ak"
       x1="911.7"
       x2="956.64"
       gradientUnits="userSpaceOnUse">
      <stop
         stop-color="#41486e"
         offset="0"
         id="stop174" />
      <stop
         stop-color="#777fae"
         offset="1"
         id="stop176" />
    </linearGradient>
    <linearGradient
       id="u"
       x1="513.34"
       x2="514.67"
       y1="201.22"
       y2="189.55"
       gradientUnits="userSpaceOnUse">
      <stop
         stop-color="#3b4c71"
         offset="0"
         id="stop179" />
      <stop
         stop-color="#3b4c71"
         stop-opacity="0"
         offset="1"
         id="stop181" />
    </linearGradient>
    <linearGradient
       id="aj"
       x2="0"
       y1="316.91"
       y2="321.69"
       gradientUnits="userSpaceOnUse"
       xlink:href="#g" />
    <linearGradient
       id="e"
       x2="0"
       y1="333.83"
       y2="323.27"
       gradientUnits="userSpaceOnUse"
       xlink:href="#a" />
    <linearGradient
       id="ae"
       x1="399.59"
       x2="399.59"
       y1="479.4"
       y2="188.14"
       gradientUnits="userSpaceOnUse"
       xlink:href="#d" />
    <linearGradient
       id="af"
       x1="379.02"
       x2="378.44"
       y1="248.66"
       y2="239.52"
       gradientUnits="userSpaceOnUse"
       xlink:href="#a" />
    <linearGradient
       id="ai"
       x1="235.06"
       x2="267.24"
       y1="234.36"
       y2="267.31"
       gradientUnits="userSpaceOnUse"
       xlink:href="#a" />
    <linearGradient
       id="ah"
       x1="230.71"
       x2="230.81"
       y1="318.24"
       y2="323.58"
       gradientUnits="userSpaceOnUse"
       xlink:href="#g" />
    <linearGradient
       id="ag"
       x1="261.02"
       x2="257.21"
       y1="458.44"
       y2="203.85"
       gradientUnits="userSpaceOnUse"
       xlink:href="#d" />
    <linearGradient
       id="as"
       x1="132.37"
       x2="224.62"
       y1="233.82"
       y2="287.08"
       gradientUnits="userSpaceOnUse"
       xlink:href="#a" />
    <radialGradient
       id="m"
       cx="385.64"
       cy="236.43"
       r="57.932"
       gradientTransform="matrix(1 -.014712 .0043214 .29373 -1.0526 177.67)"
       gradientUnits="userSpaceOnUse">
      <stop
         stop-color="#808080"
         offset="0"
         id="stop192" />
      <stop
         stop-color="#808080"
         offset=".78761"
         id="stop194" />
      <stop
         stop-color="#808080"
         offset=".90414"
         id="stop196" />
      <stop
         stop-color="#1c1c1c"
         offset="1"
         id="stop198" />
    </radialGradient>
    <radialGradient
       id="b"
       cx="328.41"
       cy="328.55"
       r="6.2346"
       gradientTransform="matrix(1 0 0 1.1163 0 -38.223)"
       gradientUnits="userSpaceOnUse">
      <stop
         stop-color="#393544"
         offset="0"
         id="stop201" />
      <stop
         stop-color="#736f80"
         offset=".52543"
         id="stop203" />
      <stop
         stop-color="#aeaabc"
         offset=".6121"
         id="stop205" />
      <stop
         stop-color="#a39eb3"
         offset=".94749"
         id="stop207" />
      <stop
         stop-color="#c0bdcb"
         offset=".95632"
         id="stop209" />
      <stop
         stop-color="#9893aa"
         offset="1"
         id="stop211" />
    </radialGradient>
    <radialGradient
       id="k"
       cx="127.62"
       cy="414.39"
       r="70.269"
       gradientTransform="matrix(1.6533 0 0 1.5248 -82.805 -212.47)"
       gradientUnits="userSpaceOnUse">
      <stop
         stop-color="#fff"
         stop-opacity="0"
         offset="0"
         id="stop214" />
      <stop
         stop-color="#fff"
         stop-opacity="0"
         offset=".5"
         id="stop216" />
      <stop
         stop-color="#fff"
         stop-opacity=".56195"
         offset="1"
         id="stop218" />
    </radialGradient>
    <radialGradient
       id="t"
       cx="740.01"
       cy="447.4"
       r="12.766"
       gradientTransform="matrix(1.8236 -.089722 .21566 1.1405 -706 2.0694)"
       gradientUnits="userSpaceOnUse">
      <stop
         stop-color="#efa68b"
         offset="0"
         id="stop221" />
      <stop
         stop-color="#833213"
         offset=".7483"
         id="stop223" />
      <stop
         stop-color="#833213"
         offset="1"
         id="stop225" />
    </radialGradient>
    <radialGradient
       id="s"
       cx="741.57"
       cy="456.69"
       r="12.766"
       gradientTransform="matrix(1 0 0 1.1591 0 -72.656)"
       gradientUnits="userSpaceOnUse">
      <stop
         offset="0"
         id="stop228" />
      <stop
         offset=".84354"
         id="stop230" />
      <stop
         stop-opacity="0"
         offset="1"
         id="stop232" />
    </radialGradient>
    <radialGradient
       id="r"
       cx="875.59"
       cy="509.7"
       r="206.67"
       gradientTransform="matrix(.54103 -.841 1.0561 .67942 -137.68 826.02)"
       gradientUnits="userSpaceOnUse">
      <stop
         stop-color="#ff1b1b"
         offset="0"
         id="stop235" />
      <stop
         stop-color="#a00"
         offset="1"
         id="stop237" />
    </radialGradient>
    <radialGradient
       id="q"
       cx="489.31"
       cy="439.82"
       r="206.67"
       gradientTransform="matrix(.010636 -.060504 .080472 .014146 583.6 478.92)"
       gradientUnits="userSpaceOnUse"
       spreadMethod="reflect">
      <stop
         stop-color="#db0000"
         stop-opacity=".56637"
         offset="0"
         id="stop240" />
      <stop
         stop-color="#e12525"
         stop-opacity="0"
         offset=".5"
         id="stop242" />
      <stop
         stop-color="#ff0b0b"
         stop-opacity="0"
         offset="1"
         id="stop244" />
    </radialGradient>
    <radialGradient
       id="n"
       cx="831.74"
       cy="474.22"
       r="17.883"
       gradientTransform="matrix(.6062 0 0 1.4447 327.54 -232.85)"
       gradientUnits="userSpaceOnUse">
      <stop
         stop-color="#9ca5c4"
         offset="0"
         id="stop247" />
      <stop
         stop-color="#9ca5c4"
         stop-opacity="0"
         offset="1"
         id="stop249" />
    </radialGradient>
    <radialGradient
       id="l"
       cx="934.08"
       cy="445.42"
       r="5.7284"
       gradientTransform="matrix(2.6542 .29539 -.17083 1.535 -1469.1 -516.04)"
       gradientUnits="userSpaceOnUse">
      <stop
         stop-color="#dc8457"
         offset="0"
         id="stop252" />
      <stop
         stop-color="#673116"
         offset="1"
         id="stop254" />
    </radialGradient>
    <radialGradient
       id="j"
       cx="160.62"
       cy="450.4"
       r="22.072"
       gradientTransform="matrix(1.532 0 0 .44363 -87.759 255.97)"
       gradientUnits="userSpaceOnUse"
       xlink:href="#h" />
    <radialGradient
       id="p"
       cx="746.19"
       cy="585.43"
       r="100.03"
       gradientTransform="matrix(.57164 -.028401 .0043532 .087619 317.09 485.84)"
       gradientUnits="userSpaceOnUse"
       xlink:href="#i" />
    <radialGradient
       id="o"
       cx="948.42"
       cy="565.15"
       r="100.03"
       gradientTransform="matrix(.57164 -.028401 .0043532 .087619 317.09 485.84)"
       gradientUnits="userSpaceOnUse"
       xlink:href="#i" />
    <radialGradient
       id="c"
       cx="672.21"
       cy="455.61"
       r="81.348"
       gradientTransform="matrix(.78189 .32115 -.55322 .94678 398.66 -197.85)"
       gradientUnits="userSpaceOnUse"
       xlink:href="#h" />
    <filter
       style="color-interpolation-filters:sRGB;"
       inkscape:label="Color Shift"
       id="filter1482">
      <feColorMatrix
         type="hueRotate"
         values="200"
         result="color1"
         id="feColorMatrix1478" />
      <feColorMatrix
         type="saturate"
         values="1"
         result="color2"
         id="feColorMatrix1480" />
    </filter>
  </defs>
  <g
     id="g1476"
     style="filter:url(#filter1482)">
    <path
       id="path263"
       d="m703.88 519.46c0 49.302-36.421 89.269-81.348 89.269s-81.348-39.967-81.348-89.269 36.421-89.269 81.348-89.269 81.348 39.967 81.348 89.269z"
       transform="matrix(.73606 0 0 .7345 -353.08 -42.033)" />
    <path
       id="path265"
       fill="#141318"
       d="m703.88 519.46c0 49.302-36.421 89.269-81.348 89.269s-81.348-39.967-81.348-89.269 36.421-89.269 81.348-89.269 81.348 39.967 81.348 89.269z"
       transform="matrix(.61759 0 0 .72586 -288.38 -37.546)" />
    <path
       id="path267"
       fill="#808080"
       d="m703.88 519.46c0 49.302-36.421 89.269-81.348 89.269s-81.348-39.967-81.348-89.269 36.421-89.269 81.348-89.269 81.348 39.967 81.348 89.269z"
       transform="matrix(.45551 0 0 .54212 -189.56 61.144)" />
    <path
       id="path269"
       fill="#4d4d4d"
       d="m703.88 519.46c0 49.302-36.421 89.269-81.348 89.269s-81.348-39.967-81.348-89.269 36.421-89.269 81.348-89.269 81.348 39.967 81.348 89.269z"
       transform="matrix(.3781 0 0 .43441 -135.06 117.1)" />
    <path
       id="path271"
       fill="#9ea6b8"
       d="m703.88 519.46c0 49.302-36.421 89.269-81.348 89.269s-81.348-39.967-81.348-89.269 36.421-89.269 81.348-89.269 81.348 39.967 81.348 89.269z"
       transform="matrix(.23173 0 0 .27639 -50.242 199.18)" />
    <path
       id="path273"
       fill="url(#c)"
       d="m703.88 519.46c0 49.302-36.421 89.269-81.348 89.269s-81.348-39.967-81.348-89.269 36.421-89.269 81.348-89.269 81.348 39.967 81.348 89.269z"
       transform="matrix(.23173 0 0 .27639 -50.242 199.18)" />
    <g
       id="g277"
       transform="translate(-43.4 -149.07)">
      <path
         id="path275"
         stroke="#000"
         fill-rule="evenodd"
         d="m129.07 450.13 23.467 43.733 70.4-5.3333 94.933 17.067s10.172 28.797 41.645 31.584c38.231 3.3851 28.551-16.992 46.757-17.619 10.151-0.35003 33.167 2.5161 60.604 6.6385 1.8733 0.28146-2.909 21.172-0.98464 21.365 13.729 1.3794 22.411-28.23 26.532-27.58 53.125 8.3835 100.81 49.085 119.45 51.013 30.933 3.2 97.462-27.001 122-27.001s35.2-2.1333 35.2-2.1333 7.4667 20.267 23.467 36.267 69.175 8.868 77.867 4.2667c18.133-9.6 33.067-33.067 35.2-46.933s2.1333-36.267 2.1333-36.267l-282.59-130.03-455.55-37.433-40.533 118.4z" />
    </g>
    <path
       id="path279"
       d="m703.88 519.46c0 49.302-36.421 89.269-81.348 89.269s-81.348-39.967-81.348-89.269 36.421-89.269 81.348-89.269 81.348 39.967 81.348 89.269z"
       transform="matrix(1.0183 0 0 1.0161 -54.115 -156.33)" />
    <path
       id="path281"
       fill="#141318"
       d="m703.88 519.46c0 49.302-36.421 89.269-81.348 89.269s-81.348-39.967-81.348-89.269 36.421-89.269 81.348-89.269 81.348 39.967 81.348 89.269z"
       transform="matrix(.8544 0 0 1.0042 35.397 -150.13)" />
    <path
       id="path283"
       fill="#808080"
       d="m703.88 519.46c0 49.302-36.421 89.269-81.348 89.269s-81.348-39.967-81.348-89.269 36.421-89.269 81.348-89.269 81.348 39.967 81.348 89.269z"
       transform="matrix(.63018 0 0 .75 172.11 -13.594)" />
    <path
       id="path285"
       fill="#4d4d4d"
       d="m703.88 519.46c0 49.302-36.421 89.269-81.348 89.269s-81.348-39.967-81.348-89.269 36.421-89.269 81.348-89.269 81.348 39.967 81.348 89.269z"
       transform="matrix(.52308 0 0 .60098 247.5 63.816)" />
    <path
       id="path287"
       fill="#9ea6b8"
       d="m703.88 519.46c0 49.302-36.421 89.269-81.348 89.269s-81.348-39.967-81.348-89.269 36.421-89.269 81.348-89.269 81.348 39.967 81.348 89.269z"
       transform="matrix(.32058 0 0 .38237 364.85 177.37)" />
    <path
       id="path289"
       fill="url(#c)"
       d="m703.88 519.46c0 49.302-36.421 89.269-81.348 89.269s-81.348-39.967-81.348-89.269 36.421-89.269 81.348-89.269 81.348 39.967 81.348 89.269z"
       transform="matrix(.32058 0 0 .38237 364.85 177.37)" />
    <g
       id="g297"
       fill-rule="evenodd"
       transform="translate(-43.4 -149.07)">
      <path
         id="path291"
         fill="#a00"
         d="m546.13 396.8-41.067-83.2-3.2-6.9333-9.0667-0.53334s-49.287-106.64-53.952-112.61c-9.9381-12.729-40.146-23.17-92.132-22.445-42.143 0.58743-71.259 1.2986-96.88 7.6457-23.411 5.7997-54.034 12.199-86.742 54.783-20.815 27.1-46.484 87.418-56.961 109.96-16.35 35.183-27.733 110.4-27.733 110.4l124.21 13.867s-10.052-106.32-10.74-120.45c-0.97266-19.985 3.8858-50.397 14.156-77.12 9.9262-25.828 28.867-48.374 44.204-57.741 29.469-17.998 36.391-23.05 92.667-27.134 25.555-1.8542 63.829 2.3896 77.162 14.123s51.325 89.805 62.604 111.52c18.353 35.334 4.0754 135.69 0.87535 150.62s-5.142 33.376-5.142 33.376l67.733-98.133z" />
      <path
         id="path293"
         filter="url(#au)"
         fill="url(#ar)"
         d="m351.53 173.03c-1.5821 0.00111-3.188 0.0086-4.8125 0.03125-42.143 0.58743-71.255 1.3091-96.875 7.6562-23.411 5.7997-65.175 27.148-86.75 54.781-21.029 26.934-46.491 87.423-56.969 109.97-16.35 35.183-27.719 110.41-27.719 110.41l1.5938 0.1875c3.6124-21.22 13.294-72.984 26.125-100.59 10.477-22.546 35.94-83.035 56.969-109.97 21.575-27.633 63.339-48.982 86.75-54.781 25.62-6.3471 54.732-7.0688 96.875-7.6562 51.986-0.72464 82.187 9.74 92.125 22.469 4.6648 5.9747 53.969 112.59 53.969 112.59l9.0625 0.53125 3.1875 6.9375 38.188 77.375 2.875-4.1562-41.062-83.219-3.1875-6.9375-9.0625-0.53125c1e-5 0-49.304-106.62-53.969-112.59-9.6276-12.331-38.269-22.534-87.312-22.5zm-159.66 175.97c-0.13842 3.6474-0.15463 7.1041 0 10.281 0.58426 12.005 7.5882 87.017 9.7812 110.34l0.96875 0.09375c1e-5 -1e-5 -10.063-106.31-10.75-120.44-0.00441-0.09057 0.00417-0.19026 0-0.28125zm299.94 29.094c-0.56158 37.605-6.3812 76.602-8.2812 85.469-3.2 14.933-5.125 33.375-5.125 33.375l1.5312-2.2188c0.87822-6.3089 2.081-14.097 3.5938-21.156 2.0697-9.6585 8.7692-55.046 8.2812-95.469z" />
      <path
         id="path295"
         stroke-width="2"
         stroke="url(#as)"
         fill="#56627f"
         d="m189.92 298.34c1.8821-4.363 4.6196-17.11 8.0415-26.349s15.57-32.337 17.281-35.588 5.304-16.596 2.5664-22.756-5.8173-7.6993-13.003-3.9352-24.467 13.346-40.037 34.048c-7.8184 10.396-18.992 30.968-21.558 38.326s-6.5017 18.478-4.4485 23.782 0.57867 8.1102 10.437 7.186c10.95-1.0266 21.729-2.3954 31.653-4.1063 9.4059-1.6217 7.186-6.245 9.0681-10.608z" />
    </g>
    <g
       id="g317"
       transform="translate(-43.4 -149.07)">
      <path
         id="path299"
         stroke-width="3"
         stroke="#500"
         fill-rule="evenodd"
         fill="#960000"
         d="m302.25 466.8 180.32 18.713s10.899-69.239 14.142-118.36c2.4206-36.66-15.883-67.682-20.187-78.135s-20.656-40.84-30.228-56.602c-8.1736-13.461-22.321-39.643-55.014-46.54-29.922-6.3121-58.697-2.0454-58.697-2.0454l-30.335 282.97z" />
      <path
         id="path301"
         fill-rule="evenodd"
         fill="url(#ae)"
         d="m305.79 461.85 173.75 18.189s10.502-67.303 13.627-115.05c2.3324-35.635-15.305-65.79-19.452-75.951s-19.904-39.698-29.126-55.02c-7.8758-13.085-20.108-35.359-51.61-42.063-28.832-6.1356-57.958-3.047-57.958-3.047l-29.229 272.94z" />
      <path
         id="path303"
         stroke-width="3"
         stroke="#bab7c7"
         fill-rule="evenodd"
         fill="url(#ac)"
         d="m326.19 289.07c0.32081-4.3191 9.0325-75.297 9.3243-79.8 0.37475-5.7831 5.4055-15.365 16.267-15.044 8.4614 0.24993 32.631 1.7788 47.457 7.9937 14.581 6.1124 28.605 17.804 38.955 37.386 10.585 20.027 19.862 34.477 19.674 41.972s-3.916 24.206-17.594 24.019-88.806 0.78451-102.86 0.22238-11.786-14.501-11.224-16.749z" />
      <path
         id="path305"
         fill-rule="evenodd"
         fill="url(#ad)"
         d="m328.66 243.62-0.9819 4.2081 2.6652 0.42082 0.14027-2.6652 108.71-2.2444 1.2624 2.8054 3.086-0.14027s-2.1041-4.7692-2.6652-4.7692-111.8 2.6652-112.22 2.3846z" />
      <path
         id="path307"
         stroke-width=".2"
         stroke="url(#af)"
         fill-rule="evenodd"
         fill="url(#m)"
         d="m328.66 242.4-0.9819 4.2081 2.6652 0.42082 0.14027-2.6652 108.71-2.2444 1.2624 2.8054 3.086-0.14027s-2.1041-4.7692-2.6652-4.7692-111.8 2.6652-112.22 2.3846z" />
      <path
         id="path309"
         stroke-width=".35961"
         stroke-linecap="round"
         stroke="url(#e)"
         fill="url(#b)"
         d="m334.47 328.55c0.00285 3.7468-2.7088 6.7859-6.0548 6.7859s-6.0577-3.0391-6.0548-6.7859 2.7088-6.7859 6.0548-6.7859 6.0577 3.0391 6.0548 6.7859z"
         transform="matrix(.93956 0 0 .93471 18.873 20.507)" />
      <path
         id="path311"
         fill-rule="evenodd"
         fill="url(#aj)"
         d="m319.53 318.04 165.89-0.86675s0.53069 1.0614 0.53069 2.1228 0.16522 1.8574 0.16522 1.8574l-166.99 0.55728 0.40677-3.6707z" />
      <path
         id="path313"
         fill="url(#f)"
         d="m334.47 328.55c0.00285 3.7468-2.7088 6.7859-6.0548 6.7859s-6.0577-3.0391-6.0548-6.7859 2.7088-6.7859 6.0548-6.7859 6.0577 3.0391 6.0548 6.7859z"
         transform="matrix(1.3075 0 0 .2932 -104.42 230.33)" />
      <path
         id="path315"
         stroke="url(#aa)"
         fill="none"
         d="m327.15 288.5c0.31421-4.256 8.8467-74.197 9.1326-78.635 0.36704-5.6986 5.2944-15.14 15.932-14.824 8.2874 0.24628 31.96 1.7528 46.481 7.877 14.282 6.0232 28.017 17.544 38.154 36.84 10.367 19.735 19.453 33.974 19.27 41.359s-3.8354 23.853-17.233 23.668-86.98 0.77305-100.74 0.21913-11.543-14.289-10.993-16.505z" />
    </g>
    <g
       id="g331"
       transform="translate(-43.4 -149.07)">
      <path
         id="path319"
         stroke-width="2"
         stroke="#500"
         fill-rule="evenodd"
         fill="#800000"
         d="m298.41 467.02-96.591-10.205s-9.9196-96.108-9.277-116.63c0.64041-20.451 3.4831-63.534 24.552-95.17 17.26-25.918 41.283-46.615 73.002-55.844 17.393-5.0606 37.048-5.5122 37.048-5.5122l-28.734 283.36z" />
      <path
         id="path321"
         fill-rule="evenodd"
         fill="url(#ag)"
         d="m298.13 462.88-94.952-9.4824s-8.552-92.348-7.9094-112.87c0.64041-20.451 3.1412-61.482 24.21-93.118 17.26-25.918 39.232-44.563 70.951-53.792 17.393-5.0606 36.364-5.6268 36.364-5.6268l-28.664 274.89z" />
      <path
         id="path323"
         stroke-width="2"
         stroke="url(#ai)"
         fill-rule="evenodd"
         fill="#515d7b"
         d="m311.88 291.71c-0.87264 3.8396-1.2217 14.137-12.566 14.66s-79.444 2.3739-83.458 2.0249-12.707-1.6758-12.532-12.671 22.215-55.272 36.897-67.859c15.393-13.197 41.821-30.517 68.868-31.099 14.61-0.31433 12.392 12.042 12.392 12.042s-8.7264 79.061-9.5991 82.901z" />
      <path
         id="path325"
         fill-rule="evenodd"
         fill="url(#ah)"
         d="m196.71 320.39 115.84-2.9325s-0.24782 1.1587-0.24782 2.2201-0.35359 1.8574-0.35359 1.8574l-116.03 2.0391 0.79603-3.1842z" />
      <path
         id="path327"
         stroke-width=".35961"
         stroke-linecap="round"
         stroke="url(#e)"
         fill="url(#b)"
         d="m334.47 328.55c0.00285 3.7468-2.7088 6.7859-6.0548 6.7859s-6.0577-3.0391-6.0548-6.7859 2.7088-6.7859 6.0548-6.7859 6.0577 3.0391 6.0548 6.7859z"
         transform="matrix(.93956 0 0 .93471 -107.9 22.41)" />
      <path
         id="path329"
         fill="url(#f)"
         d="m334.47 328.55c0.00285 3.7468-2.7088 6.7859-6.0548 6.7859s-6.0577-3.0391-6.0548-6.7859 2.7088-6.7859 6.0548-6.7859 6.0577 3.0391 6.0548 6.7859z"
         transform="matrix(1.3075 0 0 .2932 -231.2 232.23)" />
    </g>
    <g
       id="g341"
       fill-rule="evenodd"
       transform="translate(-43.4 -149.07)">
      <path
         id="path333"
         fill="url(#y)"
         d="m200.64 456.47s-0.70401-2.464-2.816 1.056-1.056 10.208 1.408 11.968 14.08 2.464 14.08 2.464l266.12 28.865s7.7442-2.112 5.9841-6.6881-3.8721-8.0962-3.8721-8.0962l-280.9-29.569z" />
      <path
         id="path335"
         fill="url(#ab)"
         d="m327.52 182.7-30.269 285.33h5.4328l29.827-285.65-4.9915 0.31938z" />
      <path
         id="path337"
         fill="url(#z)"
         d="m297.26 466.66s1.8734 1.4876 3.5866 1.2972 1.9137-1.0021 1.9137-1.0021 1.1942 0.51853 2.0732 1.8271 0.36305 2.7786 0.36305 2.7786-0.25282 0.62845-3.6792 1.0092-6.0913-0.3807-7.4238-1.3325-1.2912-2.4041-0.19036-3.236c1.4001-1.0581 2.8805-1.1894 3.3568-1.3415z" />
      <path
         id="path339"
         fill="url(#x)"
         d="m327.52 182.7-30.269 285.33h5.4328l29.827-285.65-4.9915 0.31938z" />
    </g>
    <g
       id="g361"
       transform="translate(-43.4 -149.07)">
      <path
         id="path343"
         fill-rule="evenodd"
         fill="#a00"
         d="m56.478 450.59s33.427 9.2747 58.305 12.553c38.016 4.9851 82.233 6.4922 82.233 6.4922s-2.6464-52.036-4.9284-69.749c-4.2744-32.997-17.784-60.824-37.908-59.843-27.572 1.3314-56.729 22.199-73.659 51.768-16.975 29.648-19.445 47.177-19.445 47.177l-2.408 0.65672-2.189 10.945z" />
      <path
         id="path345"
         fill-rule="evenodd"
         fill="#fff"
         d="m60.094 439.12-0.99292 0.61867-0.37244 2.1458s30.596 8.518 59.365 11.954c21.656 2.5866 71 6.1875 71 6.1875l0.21875-3s-49.398-3.5947-70.844-6.1562c-28.441-3.3971-58.375-11.75-58.375-11.75z" />
      <path
         id="path347"
         fill-rule="evenodd"
         fill="url(#w)"
         d="m191.12 394.85s-3.4022 1.4891-5.7353 1.9886c-5.0586 1.0829-6.2375-0.07694-7.1445 1.3743-0.49744 0.79589 0.32006 14.042 0.11694 26.281-0.16726 10.078-1.3616 19.439-1.6434 20.893-0.56163 2.8992 2.1377 6.8515-4.5662 6.9686-12.103 0.2115-14.879 1.9955-17.959 4.5352s2.6264 3.6095 4.7166 4.7166c3.8009 2.0132 4.1281 6.4244 4.1281 6.4244l34.405 1.7521s-2.4335-31.941-2.6149-40.104-3.5219-34.467-3.7033-34.83z" />
      <path
         id="path349"
         fill-rule="evenodd"
         fill="url(#k)"
         d="m56.478 450.59s33.427 9.2747 58.305 12.553c38.016 4.9851 82.233 6.4922 82.233 6.4922s-2.6464-52.036-4.9284-69.749c-4.2744-32.997-17.784-60.824-37.908-59.843-27.572 1.3314-56.729 22.199-73.659 51.768-16.975 29.648-19.445 47.177-19.445 47.177l-2.408 0.65672-2.189 10.945z" />
      <path
         id="path351"
         fill-rule="evenodd"
         fill="url(#v)"
         d="m191.12 394.85s-3.377 2.5259-5.7353 2.8887-6.2375-0.97706-7.1445 0.47419-0.90246 43.953-1.5265 47.174c-0.56163 2.8992 2.1377 6.8515-4.5662 6.9686-12.103 0.2115-14.879 1.9955-17.959 4.5352s2.6264 3.6095 4.7166 4.7166c3.8009 2.0132 4.1281 6.4244 4.1281 6.4244l34.405 1.7521s-2.4335-31.941-2.6149-40.104-3.5219-34.467-3.7033-34.83z" />
      <path
         id="path353"
         fill-rule="evenodd"
         fill="url(#j)"
         d="m191.12 394.85s-3.7371 2.5259-6.0954 2.8887-5.8774-0.97706-6.7845 0.47419-0.90246 43.953-1.5265 47.174c-0.56163 2.8992 2.1377 6.8515-4.5662 6.9686-12.103 0.2115-14.879 1.9955-17.959 4.5352s2.6264 3.6095 4.7166 4.7166c3.8009 2.0132 4.1281 6.4244 4.1281 6.4244l34.405 1.7521s-2.4335-31.941-2.6149-40.104-3.5219-34.467-3.7033-34.83z" />
      <path
         id="path355"
         fill-rule="evenodd"
         fill="#8c0000"
         d="m879.98 377.72s28.941 11.626 46.451 46.394c17.456 34.662 9.1906 50.912 9.9818 63.834s-18.459 17.932-18.459 17.932l-21.887 0.79111-16.086-128.95z" />
      <path
         id="path357"
         stroke-linecap="round"
         stroke="#000"
         d="m934.47 449.62c6.6e-4 6.9037-1.6013 12.502-3.5776 12.502s-3.5782-5.5978-3.5776-12.502 1.6013-12.502 3.5776-12.502 3.5782 5.5978 3.5776 12.502z"
         transform="matrix(1 0 .15623 1 -70.242 0)" />
      <path
         id="path359"
         fill-rule="evenodd"
         fill="url(#l)"
         d="m928.43 440.12s4.8829 0.19339 7.5419 3.6259 3.2777 6.5908 2.2722 8.7022c-2.4173 5.0763-7.7836 5.173-7.7836 5.173s-1.5471-0.29007-2.514-6.8167-0.38676-10.878-0.38676-10.878l0.87022 0.19338z" />
    </g>
    <g
       id="g369"
       fill-rule="evenodd"
       transform="translate(-43.4 -149.07)">
      <path
         id="path363"
         stroke-width="5"
         stroke="url(#ao)"
         fill="#ab0101"
         d="m504.41 319.97s62.673 7.2993 85.83 10.571 75.406 15.163 97.156 24.163c21.898 9.0612 35.238 14.599 35.238 14.599l-6.5442 6.7959s-24.163-10.823-44.048-11.578-73.497-3.2721-90.612 5.5374-41.279 28.694-41.279 28.694l-35.742-78.782z" />
      <path
         id="path365"
         fill="url(#ap)"
         d="m524.29 322.74s9.0612 18.374 12.837 22.401 6.7959 11.075 21.143 10.068 72.238-3.7755 97.408 0.25171 62.925 12.082 62.925 12.082-44.551-16.864-96.401-27.435-98.415-16.612-97.912-17.367z" />
      <path
         id="path367"
         fill="url(#aq)"
         d="m524.54 322.24s10.068 15.857 16.612 19.884 38.762 3.7755 55.878 5.034 74.503 6.7959 84.32 9.5646 26.932 6.2925 26.932 6.2925-60.156-23.912-108.23-31.211-75.762-9.3129-75.51-9.5646z" />
    </g>
    <g
       id="g417"
       fill-rule="evenodd"
       transform="translate(-43.4 -149.07)">
      <path
         id="path371"
         fill="#b20000"
         d="m759.61 345.46s-20.586-0.41588-29.944 3.9509-12.652 10.927-12.892 16.427c-0.24757 5.664 0.41588 9.5653 6.4462 13.1s25.161 11.853 25.161 11.853l8.7336-1.4556 2.4953-43.876z" />
      <path
         id="path373"
         fill-opacity=".29352"
         fill="#f10000"
         d="m756.25 345.47c-6.2285 0.08773-19.576 0.66242-26.594 3.9375-9.3574 4.3668-12.635 10.937-12.875 16.438-0.0715 1.6359-0.06285 3.1245 0.125 4.5 0.71295-5.1777 4.1845-11.003 12.75-15 9.1191-4.2556 28.623-3.9861 29.625-3.9688l0.34375-5.9062c-1e-5 0-1.2988-0.02924-3.375 0z" />
      <path
         id="path375"
         stroke-width="3"
         stroke="#eff2f8"
         fill="#c1cade"
         d="m773.14 389.27c4.9671-0.39756 10.729-0.59635 11.126-9.9393s0.39737-24.252-0.79473-27.83-5.9605-4.3733-13.908-4.7708-10.53-1.5903-16.491-0.79514-5.1658 6.1623-5.5631 10.734-1.0443 28.172-0.44822 31.75 21.111 1.2482 26.078 0.85067z" />
      <path
         id="path377"
         fill="#e4eaf6"
         d="m749.39 367.86 22.933 0.71667s9.0778 7.8833 7.8833 11.228-2.8667 7.1667-11.467 6.6889-12.183 0.95556-15.528-4.0611-4.3-14.811-3.8222-14.572z" />
      <path
         id="path379"
         fill="#b20000"
         d="m759.61 345.46s-20.586-0.41588-29.944 3.9509-12.652 10.927-12.892 16.427c-0.24757 5.664 0.41588 9.5653 6.4462 13.1s25.161 11.853 25.161 11.853l8.7336-1.4556 2.4953-43.876z" />
      <path
         id="path381"
         fill-opacity=".29352"
         fill="#f10000"
         d="m756.25 345.47c-6.2285 0.08773-19.576 0.66242-26.594 3.9375-9.3574 4.3668-12.635 10.937-12.875 16.438-0.0715 1.6359-0.06285 3.1245 0.125 4.5 0.71295-5.1777 4.1845-11.003 12.75-15 9.1191-4.2556 28.623-3.9861 29.625-3.9688l0.34375-5.9062c-1e-5 0-1.2988-0.02924-3.375 0z" />
      <path
         id="path383"
         stroke-width="3"
         stroke="#eff2f8"
         fill="#c1cade"
         d="m773.14 389.27c4.9671-0.39756 10.729-0.59635 11.126-9.9393s0.39737-24.252-0.79473-27.83-5.9605-4.3733-13.908-4.7708-10.53-1.5903-16.491-0.79514-5.1658 6.1623-5.5631 10.734-1.0443 28.172-0.44822 31.75 21.111 1.2482 26.078 0.85067z" />
      <path
         id="path385"
         fill="#e4eaf6"
         d="m749.39 367.86 22.933 0.71667s9.0778 7.8833 7.8833 11.228-2.8667 7.1667-11.467 6.6889-12.183 0.95556-15.528-4.0611-4.3-14.811-3.8222-14.572z" />
      <path
         id="path387"
         fill="#b20000"
         d="m759.61 345.46s-20.586-0.41588-29.944 3.9509-12.652 10.927-12.892 16.427c-0.24757 5.664 0.41588 9.5653 6.4462 13.1s25.161 11.853 25.161 11.853l8.7336-1.4556 2.4953-43.876z" />
      <path
         id="path389"
         fill-opacity=".29352"
         fill="#f10000"
         d="m756.25 345.47c-6.2285 0.08773-19.576 0.66242-26.594 3.9375-9.3574 4.3668-12.635 10.937-12.875 16.438-0.0715 1.6359-0.06285 3.1245 0.125 4.5 0.71295-5.1777 4.1845-11.003 12.75-15 9.1191-4.2556 28.623-3.9861 29.625-3.9688l0.34375-5.9062c-1e-5 0-1.2988-0.02924-3.375 0z" />
      <path
         id="path391"
         stroke-width="3"
         stroke="#eff2f8"
         fill="#c1cade"
         d="m773.14 389.27c4.9671-0.39756 10.729-0.59635 11.126-9.9393s0.39737-24.252-0.79473-27.83-5.9605-4.3733-13.908-4.7708-10.53-1.5903-16.491-0.79514-5.1658 6.1623-5.5631 10.734-1.0443 28.172-0.44822 31.75 21.111 1.2482 26.078 0.85067z" />
      <path
         id="path393"
         fill="#e4eaf6"
         d="m749.39 367.86 22.933 0.71667s9.0778 7.8833 7.8833 11.228-2.8667 7.1667-11.467 6.6889-12.183 0.95556-15.528-4.0611-4.3-14.811-3.8222-14.572z" />
      <path
         id="path395"
         fill="#800"
         d="m759.61 345.46s-20.586-0.41588-29.944 3.9509-12.652 10.927-12.892 16.427c-0.24757 5.664 0.41588 9.5653 6.4462 13.1s25.161 11.853 25.161 11.853l8.7336-1.4556 2.4953-43.876z" />
      <path
         id="path397"
         stroke-width="3"
         stroke="#eff2f8"
         fill="#c1cade"
         d="m773.14 389.27c4.9671-0.39756 10.729-0.59635 11.126-9.9393s0.39737-24.252-0.79473-27.83-5.9605-4.3733-13.908-4.7708-10.53-1.5903-16.491-0.79514-5.1658 6.1623-5.5631 10.734-1.0443 28.172-0.44822 31.75 21.111 1.2482 26.078 0.85067z" />
      <path
         id="path399"
         fill="#e4eaf6"
         d="m749.39 367.86 22.933 0.71667s9.0778 7.8833 7.8833 11.228-2.8667 7.1667-11.467 6.6889-12.183 0.95556-15.528-4.0611-4.3-14.811-3.8222-14.572z" />
      <path
         id="path401"
         fill="#b20000"
         d="m777.78 345.71s-29.223-0.45182-42.507 4.2924-17.96 11.871-18.302 17.847c-0.35144 6.1534 0.59037 10.392 9.1508 14.233s35.717 12.877 35.717 12.877l12.398-1.5814 3.5422-47.668z" />
      <path
         id="path403"
         fill-opacity=".97952"
         fill="#c00000"
         d="m756.25 345.47c-6.2285 0.08773-19.576 0.66242-26.594 3.9375-9.3574 4.3668-12.635 10.937-12.875 16.438-0.0715 1.6359-0.06285 3.1245 0.125 4.5 0.71295-5.1777 4.1845-11.003 12.75-15 9.1191-4.2556 28.623-3.9861 29.625-3.9688l0.34375-5.9062c-1e-5 0-1.2988-0.02924-3.375 0z" />
      <path
         id="path405"
         stroke-width="3"
         stroke="#eff2f8"
         fill="#c1cade"
         d="m773.14 389.27c4.9671-0.39756 10.729-0.59635 11.126-9.9393s0.39737-24.252-0.79473-27.83-5.9605-4.3733-13.908-4.7708-10.53-1.5903-16.491-0.79514-5.1658 6.1623-5.5631 10.734-1.0443 28.172-0.44822 31.75 21.111 1.2482 26.078 0.85067z" />
      <path
         id="path407"
         fill="#e4eaf6"
         d="m749.39 367.86 22.933 0.71667s9.0778 7.8833 7.8833 11.228-2.8667 7.1667-11.467 6.6889-12.183 0.95556-15.528-4.0611-4.3-14.811-3.8222-14.572z" />
      <path
         id="path409"
         fill="#b20000"
         d="m925.37 350.33s-25.605-0.39494-37.243 3.752-15.736 10.377-16.035 15.6c-0.30792 5.3788 0.51726 9.0838 8.0176 12.441s19.182 7.6936 19.182 7.6936l10.863-1.3823 15.216-38.104z" />
      <path
         id="path411"
         fill-opacity=".97952"
         fill="#c00000"
         d="m906.5 350.12c-5.4572 0.0767-17.152 0.57904-23.301 3.4418-8.1986 3.817-11.07 9.5603-11.281 14.368-0.06265 1.4299-0.05507 2.7312 0.10952 3.9335 0.62467-4.5259 3.6663-9.6176 11.171-13.112 7.9899-3.7198 25.079-3.4843 25.956-3.4691l0.30118-5.1627c-1e-5 0-1.138-0.02555-2.9571 0z" />
      <path
         id="path413"
         stroke-width="3"
         stroke="#eff2f8"
         fill="#c1cade"
         d="m921.3 388.4c4.352-0.34752 9.4003-0.52127 9.7484-8.688s0.34816-21.199-0.69632-24.326-5.2224-3.8227-12.186-4.1702-9.2262-1.3901-14.449-0.69504-4.5261 5.3866-4.8742 9.383-0.91495 24.625-0.39271 27.753 18.497 1.0911 22.849 0.74358z" />
      <path
         id="path415"
         fill="#e4eaf6"
         d="m900.5 369.69 20.093 0.62645s7.9537 6.8909 6.9071 9.8143-2.5117 6.2645-10.047 5.8468-10.675 0.83527-13.605-3.5499-3.7675-12.947-3.3489-12.738z" />
    </g>
    <g
       id="g439"
       transform="translate(-43.4 -149.07)">
      <path
         id="path419"
         stroke-opacity=".67577"
         stroke="#353535"
         fill-rule="evenodd"
         fill="#a00"
         d="m493.28 306.72 179.88-1.9587-62.027-94.019-172.7-17.955s23.505 44.072 30.36 60.721 24.811 54.192 24.484 53.212z" />
      <path
         id="path421"
         stroke-opacity=".67577"
         stroke="#353535"
         fill="none"
         d="m489.04 288.05c0 3.6349 2.4232 12.268 8.027 12.722s163.11 8.9357 168.26 8.6328 2.1203-8.1784 0.15146-10.147-2.4232-2.7262-2.4232-2.7262" />
      <path
         id="path423"
         fill-rule="evenodd"
         fill="#dfc8d7"
         d="m489.23 284.86-0.1875 3 175.87 10.336-1.4785-3.1514-174.2-10.185z" />
      <path
         id="path425"
         stroke="#000"
         fill-rule="evenodd"
         fill="#a0abcf"
         d="m597.04 221.6c15.474 0.60287 18.689 6.2296 21.904 11.655s25.722 37.378 28.134 42.804 4.2215 6.8942-8.8421 6.8325c-42.573-0.20096-124.19-5.0239-141.47-7.4354-8.2206-1.1471-18.287-4.823-23.512-17.483s-17.282-37.177-19.694-42.603-8.8421-10.249 8.2392-8.4402 136.05 15.072 135.24 14.67z" />
      <path
         id="path427"
         stroke-width="2"
         stroke="#000"
         fill="none"
         d="m545.6 275.66s15.373-6.0287 21.904-7.0335 16.579-3.3158 16.579-3.3158" />
      <path
         id="path429"
         fill-rule="evenodd"
         fill="#4d4d4d"
         d="m538.28 284.8c2.2238-2.311 15.103-11.756 20.201-14.368s9.6398-6.3301 10.931-6.6316 2.6515 0.80383 0.88682 1.7081-18.733 13.565-20.942 15.675-4.8238 4.1196-7.5395 6.1292-5.7621-0.20095-3.5383-2.512z" />
      <path
         id="path431"
         fill-rule="evenodd"
         fill="#e9dee9"
         d="m537.26 284.8c2.3361-2.311 15.675-11.756 20.899-14.368s9.9474-6.3301 11.254-6.6316 2.6124 0.80383 0.80383 1.7081-19.392 13.565-21.703 15.675-5.0239 4.1196-7.8373 6.1292-5.7524-0.20095-3.4163-2.512z" />
      <path
         id="path433"
         stroke-width="2"
         stroke="#000"
         fill="none"
         d="m609.92 279.57s14.742-6.0287 21.168-7.0335 16.232-3.3158 16.232-3.3158" />
      <path
         id="path435"
         fill-rule="evenodd"
         fill="#4d4d4d"
         d="m603.56 288.71c1.9818-2.311 13.872-11.756 18.696-14.368s8.9768-6.3301 10.237-6.6316 2.7357 0.80383 1.0657 1.7081-17.312 13.565-19.3 15.675-4.3923 4.1196-6.8975 6.1292-5.7832-0.20095-3.8014-2.512z" />
      <path
         id="path437"
         fill-rule="evenodd"
         fill="#e9dee9"
         d="m602.54 288.71c2.0941-2.311 14.443-11.756 19.395-14.368s9.2843-6.3301 10.559-6.6316 2.6966 0.80383 0.98274 1.7081-17.972 13.565-20.062 15.675-4.5924 4.1196-7.1953 6.1292-5.7734-0.20095-3.6794-2.512z" />
    </g>
    <g
       id="g449"
       fill-rule="evenodd"
       transform="translate(-43.4 -149.07)">
      <path
         id="path441"
         fill="url(#an)"
         d="m501.25 308.16 4.9688 10.812c-1e-5 0 81.759 10.165 101.12 14.219s91.322 28.645 103.03 34.5 54.934 35.774 67.094 52.438 30.397 47.766 34 58.125 11.809 28.989 39.281 27.188 51.852-3.3331 59.508-8.2872c-7.6563 4.9541-55.945 5.0766-61.977-5.7753-5.6578-10.178-29.345-91.96-100.25-131.84-87.192-49.045-246.78-51.375-246.78-51.375z" />
      <path
         id="path443"
         fill="url(#r)"
         d="m501.26 308.17s159.59 2.3103 246.78 51.356c70.905 39.884 94.196 121.9 100.25 131.85 5.0652 8.3288 32.38 14.391 45.426 12.67 6.5837-0.86834 18.28-3.9695 18.734-10.833 0.6019-9.0994 1.1911-24.805-1.4148-43.463-2.8581-20.464-3.4425-54.817-42.271-90.685-21.844-20.179-67.331-41.177-104.94-48.19-30.304-5.6512-93.677-8.1067-93.677-8.1067s-67.105-1.3511-89.173-0.45037-81.517 4.5037-79.716 5.8548z" />
      <path
         id="path445"
         fill="url(#q)"
         d="m501.26 308.17s159.59 2.3103 246.78 51.356c70.905 39.884 94.589 121.67 100.25 131.85 6.0322 10.852 54.123 4.6267 61.779-0.32739s3.5726-22.64 0.96681-41.298c-2.8581-20.464-3.4425-54.817-42.271-90.685-21.844-20.179-67.331-41.177-104.94-48.19-30.304-5.6512-93.677-8.1067-93.677-8.1067s-67.105-1.3511-89.173-0.45037-81.517 4.5037-79.716 5.8548z" />
      <path
         id="path447"
         fill="url(#am)"
         d="m501.26 308.17s159.59 2.3103 246.78 51.356c70.905 39.884 94.589 121.67 100.25 131.85 6.0322 10.852 64.181 5.995 64.018-3.4863-0.15716-9.1179 1.3339-19.481-1.2719-38.14-2.8581-20.464-3.4425-54.817-42.271-90.685-21.844-20.179-67.331-41.177-104.94-48.19-30.304-5.6512-93.677-8.1067-93.677-8.1067s-67.105-1.3511-89.173-0.45037-81.517 4.5037-79.716 5.8548z" />
    </g>
    <g
       id="g469"
       fill-rule="evenodd"
       transform="translate(-43.4 -149.07)">
      <path
         id="path451"
         fill="#9191ab"
         d="m846.69 465.26c2.9393-0.18371 32.148-1.6533 36.373-1.837s24.433-0.36741 26.086-1.6533-2.9393-36.19-4.4089-41.333c-1.2707-4.4476-8.8178-18.003-27.556-18.554s-39.313 7.5318-42.803 9.92-3.3067 10.839-2.7556 13.227 4.7763 28.107 5.5111 31.23 6.7963 9.1738 9.5526 9.0015z" />
      <path
         id="path453"
         fill="#cdcdd9"
         d="m873.5 403.38c-16.876 0.42176-34.289 7.3043-37.406 9.4375-3.3256 2.2754-3.1501 10.35-2.625 12.625s71.056 0.52583 69.656-4.375c-1.2107-4.2376-8.397-17.162-26.25-17.688-1.1158-0.03282-2.2499-0.02812-3.375 0zm2.875 4.0938c14.878 0.13555 24.521 9.8536 25.688 13.938 1.3497 4.7232-69.038 0.60515-68.094-1.4375 3.4602-7.483 29.475-12.618 42.406-12.5z" />
      <path
         id="path455"
         stroke="#000"
         d="m849.84 461.03c5.1459 0.21059 27.876-1.433 31.54-1.5922s21.186-0.31845 22.62-1.433-3.0998-29.53-4.3742-33.988c-1.1019-3.8548-10.214-13.014-24.261-13.142-12.209-0.11122-36.789 4.7321-40.056 11.795-0.89183 1.9281 4.509 28.035 5.1462 30.742s4.0562 7.4001 9.3855 7.6182z" />
      <path
         id="path457"
         fill="#9191ab"
         d="m827.71 420.14c6.094 1.4213 21.641 4.9766 44.556 5.3675 12.859 0.22004 30.035-0.79137 33.464-4.7293 1.0801-1.2403 1.3495-4.7514-2.4613-3.4655-4.855 1.6383-21.159 3.0594-27.716 3.0111-5.7212-0.04218-43.026-4.517-47.028-4.96-3.2917-0.36432-3.0194 4.7763-0.81492 4.7763z" />
      <path
         id="path459"
         fill="#cdcdd9"
         d="m827.71 418.55c6.094 0.95047 21.641 3.328 44.556 3.5894 12.859 0.14715 30.035-0.52923 33.464-3.1627 1.0801-0.82946 1.0422-2.2928-2.6768-1.0965-7.8716 2.5321-23.678 2.9125-30.23 2.66-21.235-0.81827-39.65-4.4572-43.652-4.7534-3.2917-0.24364-3.6658 2.7632-1.4613 2.7632z" />
      <path
         id="path461"
         fill="#9191ab"
         d="m831.8 434.11c6.094 1.2573 21.641 4.3942 44.556 4.1685 12.859-0.12598 30.035-1.5996 33.464-5.6298 1.0801-1.2694 1.3495-4.7878-2.4613-3.3993-4.855 1.7689-21.159 3.6288-27.716 3.7569-5.7212 0.11178-43.026-3.3592-47.028-3.6945-3.2917-0.27575-3.0194 4.8576-0.81492 4.7982z" />
      <path
         id="path463"
         fill="#cdcdd9"
         d="m831.8 432.52c6.094 0.78648 21.641 2.7457 44.556 2.3905 12.859-0.19887 30.035-1.3375 33.464-4.0632 1.0801-0.85852 1.0422-2.3208-2.6768-1.0245-7.8716 2.7439-23.678 3.5497-30.23 3.4735-21.235-0.24685-39.65-3.3903-43.652-3.5788-3.2917-0.15506-3.6658 2.8618-1.4613 2.8025z" />
      <path
         id="path465"
         fill="#9191ab"
         d="m833.97 447.85c6.094 1.2356 21.641 4.317 44.556 4.0096 12.859-0.17184 30.035-1.7067 33.464-5.7492 1.0801-1.2732 1.3495-4.7926-2.4613-3.3905-4.855 1.7863-21.159 3.7043-27.716 3.8558-5.7212 0.13218-43.026-3.2058-47.028-3.5268-3.2917-0.26401-3.0194 4.8683-0.81492 4.8011z" />
      <path
         id="path467"
         fill="#cdcdd9"
         d="m833.97 446.26c6.094 0.76475 21.641 2.6685 44.556 2.2316 12.859-0.24473 30.035-1.4446 33.464-4.1826 1.0801-0.86237 1.0422-2.3246-2.6768-1.0149-7.8716 2.772-23.678 3.6341-30.23 3.5813-21.235-0.17111-39.65-3.2488-43.652-3.4231-3.2917-0.14333-3.6658 2.8749-1.4613 2.8077z" />
    </g>
    <g
       id="g483"
       transform="translate(-43.4 -149.07)">
      <path
         id="path471"
         fill-rule="evenodd"
         fill="#800000"
         d="m483.54 488.45s10.853-16.511 24.084-33.062c13.535-16.932 48.235-82.363 92.179-73.818 13.326 2.5914 29.399 0.18701 63.168 38.28 17.444 19.678 96.777-28.597 48.528-45.729-71.612-25.427-133.47-1.5184-149.64 7.6918-25.173 14.335-49.765 56.012-54.193 63.982-10.932 19.676-22.027 34.658-22.027 36.406s-1.3985 6.2486-2.0978 6.2486z" />
      <path
         id="path473"
         fill-rule="evenodd"
         fill="#a00"
         d="m483.54 484.45s11.188-15.733 24.124-32.516 42.308-75.892 90.554-70.276c21.588 2.5131 34.963 4.8948 58.388 32.166 17.135 19.948 25.523 49.298 34.613 64.681s27.621 35.662 46.501 37.061 86.009-1.7482 86.009-1.7482-8.6563-29.75-13.286-41.956c-15.384-40.557-50.696-84.61-98.945-101.74-71.612-25.427-119.58-9.0396-149.64 7.6918-25.312 14.089-49.765 56.012-54.193 63.982-10.932 19.676-22.027 34.658-22.027 36.406s-1.3985 6.2486-2.0978 6.2486z" />
      <path
         id="path475"
         filter="url(#at)"
         fill-rule="evenodd"
         fill-opacity=".14676"
         fill="#fff"
         d="m488.84 476.62s11.745-19.368 23.064-35.4c27.596-39.085 47.167-70.515 91.851-65.314 19.994 2.3275 33.17 4.0843 57.268 27.18 17.583 16.852 67.793 72.625 106.75 48.099 14.838-9.3419-18.477-66.326-63.163-82.193-66.324-23.55-123.21-0.66092-138.59 7.1239-27.376 13.857-50.732 53.617-54.833 60.998-10.124 18.223-20.4 32.099-20.4 33.718s-1.2952 5.7872-1.9429 5.7872z" />
      <path
         id="path477"
         fill="url(#s)"
         d="m754.33 456.69c0.00484 8.1758-5.7119 14.807-12.766 14.807s-12.77-6.6308-12.766-14.807 5.7119-14.807 12.766-14.807 12.77 6.6308 12.766 14.807z"
         transform="matrix(1 0 .1653 1 -75.201 0)" />
      <path
         id="path479"
         fill="url(#t)"
         d="m754.33 456.69c0.00484 8.1758-5.7119 14.807-12.766 14.807s-12.77-6.6308-12.766-14.807 5.7119-14.807 12.766-14.807 12.77 6.6308 12.766 14.807z"
         transform="matrix(.84145 0 .13909 .84283 54.341 71.779)" />
      <path
         id="path481"
         fill-rule="evenodd"
         fill="#2f2a30"
         d="m516.3 443.18s-18.104 33.77-24.719 45.607-20.193 36.556-23.674 49.089-1.3926 3.1333 0.34815-9.7481 2.0889-20.541 6.2667-27.156 41.43-58.141 41.778-57.793z" />
    </g>
    <g
       id="g499"
       fill-rule="evenodd"
       transform="translate(-43.4 -149.07)">
      <path
         id="path485"
         stroke="#000"
         d="m765.64 400.15s2.0794-2.0794 8.5256-4.1588 11.437 1.8715 9.9812 8.9415-4.1588 11.021-4.1588 11.021l-14.348-15.804z" />
      <path
         id="path487"
         fill="#73779b"
         d="m760.65 399.74s15.804 0 18.091 0.83177 7.07 8.7336-1.0397 8.7336-17.467-0.62382-17.467-0.62382l0.41588-8.9415z" />
      <path
         id="path489"
         fill="#25242a"
         d="m759.2 407.43c-5.1986-1.4556-4.3668-2.4953-7.4859-8.9415s-5.1986-8.1097-5.1986-8.1097l11.021-1.2476s-1.2477 0.41588 0.62382 5.4065 2.6374 3.4286 4.1588 5.4065c6.2383 8.1097-3.1191 7.4859-3.1191 7.4859z" />
      <path
         id="path491"
         fill="#b20000"
         d="m777.78 345.71s-29.223-0.45182-42.507 4.2924-17.96 11.871-18.302 17.847c-0.35144 6.1534 0.59037 10.392 9.1508 14.233s35.717 12.877 35.717 12.877l12.398-1.5814 3.5422-47.668z" />
      <path
         id="path493"
         fill-opacity=".97952"
         fill="#c00000"
         d="m756.25 345.47c-6.2285 0.08773-19.576 0.66242-26.594 3.9375-9.3574 4.3668-12.635 10.937-12.875 16.438-0.0715 1.6359-0.06285 3.1245 0.125 4.5 0.71295-5.1777 4.1845-11.003 12.75-15 9.1191-4.2556 28.623-3.9861 29.625-3.9688l0.34375-5.9062c-1e-5 0-1.2988-0.02924-3.375 0z" />
      <path
         id="path495"
         stroke-width="3"
         stroke="#eff2f8"
         fill="#c1cade"
         d="m773.14 389.27c4.9671-0.39756 10.729-0.59635 11.126-9.9393s0.39737-24.252-0.79473-27.83-5.9605-4.3733-13.908-4.7708-10.53-1.5903-16.491-0.79514-5.1658 6.1623-5.5631 10.734-1.0443 28.172-0.44822 31.75 21.111 1.2482 26.078 0.85067z" />
      <path
         id="path497"
         fill="#e4eaf6"
         d="m749.39 367.86 22.933 0.71667s9.0778 7.8833 7.8833 11.228-2.8667 7.1667-11.467 6.6889-12.183 0.95556-15.528-4.0611-4.3-14.811-3.8222-14.572z" />
    </g>
    <g
       id="g523"
       fill-rule="evenodd"
       transform="translate(-43.4 -149.07)">
      <path
         id="path501"
         fill="#171929"
         d="m744.73 516.04 5.1236 12.96 198.31-8.7403 0.90417-18.385-204.34 14.165z" />
      <path
         id="path503"
         fill="#66657d"
         d="m746.58 518.39s69.966-2.4694 80.049-2.881 75.316-4.1156 81.49-4.3214 30.25-1.852 34.16-2.881 1.2347-7.2024 1.2347-7.2024l-24.694-5.1446s-3.0704 1.0075-13.981 5.1539c-12.568 4.7765-44.138-2.1274-64.21 2.4508-16.526 3.7693-45.695 4.0299-58.448 4.5365-12.365 0.49121-31.279 2.881-34.983 3.4983s-3.7041 6.1735-0.61735 6.7908z" />
      <path
         id="path505"
         fill="url(#p)"
         d="m746.58 518.39s69.966-2.4694 80.049-2.881 75.316-4.1156 81.49-4.3214 30.25-1.852 34.16-2.881 1.2347-7.2024 1.2347-7.2024l-24.694-5.1446s-3.0704 1.0075-13.981 5.1539c-12.568 4.7765-44.138-2.1274-64.21 2.4508-16.526 3.7693-45.695 4.0299-58.448 4.5365-12.365 0.49121-31.279 2.881-34.983 3.4983s-3.7041 6.1735-0.61735 6.7908z" />
      <path
         id="path507"
         fill="url(#o)"
         d="m746.58 518.39s69.966-2.4694 80.049-2.881 75.316-4.1156 81.49-4.3214 30.25-1.852 34.16-2.881 1.2347-7.2024 1.2347-7.2024l-24.694-5.1446s-3.0704 1.0075-13.981 5.1539c-12.568 4.7765-44.138-2.1274-64.21 2.4508-16.526 3.7693-45.695 4.0299-58.448 4.5365-12.365 0.49121-31.279 2.881-34.983 3.4983s-3.7041 6.1735-0.61735 6.7908z" />
      <path
         id="path509"
         fill="url(#al)"
         d="m751.61 534.72s70.994-2.2573 81.076-2.7098c42.454-1.9056 103.64-7.7248 110.31-9.0985 3.9598-0.81577 6.5782-5.3063 6.5782-5.3063s-92.387 5.8004-105.14 6.3071c-12.365 0.49121-89.354 3.0571-93.058 3.6744s-2.8485 6.5157 0.23827 7.1331z" />
      <path
         id="path511"
         stroke-width="3"
         stroke="#000"
         fill="#fff"
         d="m834.33 468.83s25.281 1.1204 44.397 0.34152c22.203-0.90468 34.323-2.2199 34.323-2.2199l0.85379 28.517s-20.148 0.88501-33.81 1.7076c-16.712 1.0062-44.739 2.7322-44.739 2.7322l-1.0246-31.078z" />
      <path
         id="path513"
         fill="#6776a5"
         d="m806.33 507.12s14.578 0.3037 18.83 0.3037 4.0234 6.736 4.0234 10.684 0.12979 8.6776-1.9961 12.018 1.0098 2.5049 4.3505 2.5049 7.2889-0.91111 9.4148-3.6444 0.91111-70.763-0.60741-73.8-2.9072-6.9203-6.8554-7.5277-4.4979 0.32008-5.2928 4.187c-1.5574 7.5769-2.2116 17.421-7.4394 28.925s-14.427 26.35-14.427 26.35z" />
      <path
         id="path515"
         fill="url(#n)"
         d="m806.33 507.12s14.578 0.3037 18.83 0.3037 4.0234 6.736 4.0234 10.684 0.12979 8.6776-1.9961 12.018 1.0098 2.5049 4.3505 2.5049 7.2889-0.91111 9.4148-3.6444 0.91111-70.763-0.60741-73.8-2.9072-6.9203-6.8554-7.5277-4.4979 0.32008-5.2928 4.187c-1.5574 7.5769-2.2116 17.421-7.4394 28.925s-14.427 26.35-14.427 26.35z" />
      <path
         id="path517"
         fill="#140c1b"
         d="m833.2 461.37c-0.11941-5.4926 6.209-11.224 7.0449-0.35821s2.1493 63.762 2.1493 63.762l-7.7613 0.35821s-1.3134-62.449-1.4328-63.762z" />
      <path
         id="path519"
         fill="url(#ak)"
         d="m911.7 500.48s19.419 1.3393 23.102 1.3393 7.5333-0.33481 7.7007 3.0133 1.3393 12.053 0.16741 13.393-9.3748 5.357-9.3748 5.357 0.1674 1.0044 1.1718 1.8415 13.56-3.5156 15.569-5.0222 5.1896-4.3526 5.1896-7.7008 2.3437-56.081 1.0044-58.09-4.52-6.6963-6.6963-7.3659-3.3481-2.0089-3.8504-0.33482-8.077 22.495-12.556 30.636c-5.8188 10.577-18.415 21.596-21.428 22.935z" />
      <path
         id="path521"
         fill="#282937"
         d="m950.04 459.13c0.50222-6.8637 6.8637-10.881 7.0311-0.83703s-0.66963 58.258-0.66963 58.258l-7.1985 1.8415s1.1718-56.081 0.83704-59.262z" />
    </g>
    <g
       id="g529"
       fill-rule="evenodd"
       transform="translate(-43.4 -149.07)">
      <path
         id="path525"
         fill="#7f92bc"
         d="m176.25 217.72c7.3333-4.2667 24.846-23.37 53.646-32.97s92.547-13.237 122.63-13.554c29.409-0.31011 56.028 4.7402 70.4 11.733 13.334 6.4876 15.531 9.8207 15.531 9.8207l173.2 19.356s5.4023-3.3103 2.2023-5.977-5.3333 0.79999-17.067-5.6-30.933-12.8-30.933-12.8-28.8-4.5333-48.533-6.4c-19.646-1.8584-94.933-13.867-125.87-14.933-15.494-0.53428-53.583-4.1935-120.8 4.5333-66.95 8.7268-94.414 46.791-94.414 46.791z" />
      <path
         id="path527"
         fill="url(#u)"
         d="m422.93 182.93c13.334 6.4876 15.531 9.8207 15.531 9.8207l173.2 19.356s5.4023-3.3103 2.2023-5.977-5.3333 0.79999-17.067-5.6-188.24-24.593-173.87-17.6z" />
    </g>
  </g>
</svg>
